<?xml version="1.0" standalone="no"?>
<!DOCTYPE svg PUBLIC "-//W3C//DTD SVG 20010904//EN"
 "http://www.w3.org/TR/2001/REC-SVG-20010904/DTD/svg10.dtd">
<svg version="1.0" xmlns="http://www.w3.org/2000/svg"
 width="192.000000pt" height="192.000000pt" viewBox="0 0 192.000000 192.000000"
 preserveAspectRatio="xMidYMid meet">
<metadata>
Created by potrace 1.14, written by Peter Selinger 2001-2017
</metadata>
<g transform="translate(0.000000,192.000000) scale(0.100000,-0.100000)"
fill="#000000" stroke="none">
<path d="M63 1489 c-12 -4 -26 -17 -32 -28 -7 -13 -11 -181 -11 -504 0 -456 1
-486 18 -508 24 -29 75 -30 104 -1 20 20 21 31 22 239 l1 218 273 1 272 2 0
-218 c0 -193 2 -220 18 -238 29 -35 67 -38 96 -8 21 20 26 35 26 78 1 29 1
251 1 492 0 426 -1 440 -20 459 -28 28 -79 27 -103 -2 -16 -21 -18 -44 -18
-230 l0 -206 -267 2 c-148 1 -271 2 -274 2 -3 1 -5 94 -6 207 0 189 -2 207
-20 225 -23 23 -50 30 -80 18z"/>
<path d="M1104 1474 l-24 -23 0 -489 c0 -452 1 -491 18 -510 27 -33 63 -37 95
-11 28 21 28 22 27 138 -1 64 -1 153 -1 199 l1 83 184 -1 c181 -2 185 -2 225
-28 51 -33 61 -58 66 -161 5 -103 26 -169 68 -209 44 -42 76 -49 110 -22 34
27 35 63 3 95 -31 31 -42 67 -45 140 -4 116 -29 180 -90 232 l-25 22 41 36
c23 19 54 61 70 92 23 49 28 70 27 138 0 133 -54 218 -172 273 -56 26 -59 26
-306 28 l-249 2 -23 -24z m496 -118 c72 -24 123 -99 118 -176 -3 -55 -36 -118
-81 -154 l-39 -31 -189 -3 c-128 -2 -189 0 -189 7 -1 6 -1 49 -1 96 0 47 0
127 1 178 l0 92 178 0 c97 -1 188 -5 202 -9z"/>
</g>
</svg>
